<svg width="50" height="50" fill="none" xmlns="http://www.w3.org/2000/svg"><path d="M41.057 49.144a151.029 151.029 0 01-32.114 0 9.104 9.104 0 01-8.087-8.088 151.018 151.018 0 010-32.113A9.104 9.104 0 018.943.856a151.018 151.018 0 0132.113 0 9.104 9.104 0 018.088 8.087 151.025 151.025 0 010 32.113 9.104 9.104 0 01-8.087 8.088z" fill="url(#paint0_linear)"/><path d="M46.425 10.752a8.079 8.079 0 00-7.177-7.177 134.062 134.062 0 00-28.496 0 8.08 8.08 0 00-7.177 7.177 134.058 134.058 0 000 28.496 8.079 8.079 0 007.177 7.177 134.008 134.008 0 0028.496 0 8.078 8.078 0 007.177-7.177 134.008 134.008 0 000-28.496z" fill="url(#paint1_linear)"/><path d="M.75 40.02c.034.346.069.691.106 1.037a9.104 9.104 0 008.088 8.087 151.025 151.025 0 0032.113 0 9.104 9.104 0 008.087-8.087c.037-.346.073-.691.107-1.037H.75z" fill="url(#paint2_linear)"/><path d="M33.615 8.327a7.888 7.888 0 00-7.888 7.888v5.892h-4.245v7.295l4.245 3.802v16.794a151.352 151.352 0 0015.33-.854 9.104 9.104 0 008.087-8.088c.85-7.956 1.066-15.93.651-23.896l-8.832-8.833h-7.348z" fill="url(#paint3_linear)"/><path d="M25.727 49.998c2.913-.014 5.826-.113 8.738-.296v-20.3h5.798l.7-7.295h-6.498v-4.632c0-1.023.83-1.853 1.852-1.853h4.646V8.327h-7.348a7.888 7.888 0 00-7.888 7.888v5.892h-4.245v7.295h4.245v20.596z" fill="#fff"/><defs><linearGradient id="paint0_linear" x1="16.601" y1="7.03" x2="29.247" y2="34.087" gradientUnits="userSpaceOnUse"><stop stop-color="#3457A0"/><stop offset="1" stop-color="#3B5998"/></linearGradient><linearGradient id="paint1_linear" x1="34.485" y1="31.517" x2="-9.223" y2="1.485" gradientUnits="userSpaceOnUse"><stop stop-color="#3457A0" stop-opacity="0"/><stop offset="1" stop-color="#1F3F77"/></linearGradient><linearGradient id="paint2_linear" x1="25" y1="41.785" x2="25" y2="48.55" gradientUnits="userSpaceOnUse"><stop stop-color="#3457A0" stop-opacity="0"/><stop offset="1" stop-color="#1F3F77"/></linearGradient><linearGradient id="paint3_linear" x1="57.4" y1="41.292" x2="22.696" y2="23.793" gradientUnits="userSpaceOnUse"><stop stop-color="#3457A0" stop-opacity="0"/><stop offset=".325" stop-color="#2A4C8D" stop-opacity=".325"/><stop offset=".705" stop-color="#22427D" stop-opacity=".706"/><stop offset="1" stop-color="#1F3F77"/></linearGradient></defs></svg>