<svg width="25" height="25" fill="none" xmlns="http://www.w3.org/2000/svg"><path d="M12.545 24.98A12.5 12.5 0 012.998 4.359a12.574 12.574 0 0114.583-3.294.595.595 0 11-.485 1.086A11.309 11.309 0 003.013 18.635a11.309 11.309 0 0020.797-6.154v-1.09a.595.595 0 111.19 0v1.09a12.571 12.571 0 01-8.955 11.984 12.31 12.31 0 01-3.5.515z" fill="#C29F5B"/><path d="M12.501 15.474a.595.595 0 01-.42-.172l-3.57-3.571a.596.596 0 01.842-.843l3.148 3.149L23.983 2.544a.595.595 0 11.842.842L12.921 15.29a.594.594 0 01-.423.173l.003.011z" fill="#C29F5B"/></svg>