<svg width="60" height="80" fill="none" xmlns="http://www.w3.org/2000/svg"><g clip-path="url(#clip0)" fill="#C29F5B"><path d="M53.377 21.004a1.073 1.073 0 00-.39.065l-8.053 2.942a1.071 1.071 0 00-.677.772l-16.298 2.004-10.341 6.436a2.686 2.686 0 001.08 4.948c3.177.4 6.405-.013 9.379-1.202l3.302-1.318a1.071 1.071 0 011.15.233l10.054 9.986a2.144 2.144 0 11-3.357 2.603 1.072 1.072 0 00-1.845 1.089 2.143 2.143 0 01-3.557 2.38 1.071 1.071 0 00-1.717 1.282 1.822 1.822 0 01-2.511 2.569l-1.551 1.502a3.963 3.963 0 006.522-2.473 4.285 4.285 0 005.175-3.36 4.286 4.286 0 004.356-7.112L34.04 34.364a3.215 3.215 0 00-3.456-.702l-3.302 1.317a16.764 16.764 0 01-8.312 1.063.543.543 0 01-.22-.998l9.942-6.19 16.145-1.985 4.505 12.32a19.561 19.561 0 01-6.144 2.759l1.745 1.729a21.705 21.705 0 005.32-2.524 1.071 1.071 0 00.984.129l8.05-2.942a1.07 1.07 0 00.64-1.374L54.36 21.703a1.07 1.07 0 00-.983-.703v.004zm-.663 2.45l4.843 13.248-6.038 2.205-4.843-13.248 6.038-2.206z"/><path d="M17.397 38.888a4.286 4.286 0 00-3.01 1.204l-3.585 3.482a4.286 4.286 0 003.908 7.262 4.287 4.287 0 005.918 3.684 3.964 3.964 0 006.637 2.037l2.507-2.427a3.964 3.964 0 00-2.934-6.81 4.285 4.285 0 00-5.207-4.41 4.285 4.285 0 00-4.251-4.01l.017-.012zm-.085 2.143a2.142 2.142 0 011.55 3.677l-3.584 3.482a2.144 2.144 0 11-2.985-3.08l3.587-3.477a2.143 2.143 0 011.431-.602zm5.155 3.93a2.143 2.143 0 011.603 3.657l-3.591 3.478a2.143 2.143 0 01-2.983-3.077l3.589-3.478a2.14 2.14 0 011.382-.58zm4.487 4.498a1.82 1.82 0 011.343 3.117l-2.52 2.44a1.821 1.821 0 01-2.537-2.611l2.52-2.443a1.82 1.82 0 011.194-.504zM11.431 24.298a1.071 1.071 0 00-.846.39L.244 37.221a1.072 1.072 0 00.15 1.51l6.24 5.146a1.071 1.071 0 001.026.192c.361.242.737.461 1.125.656h-.021a5.358 5.358 0 011.167-1.817 8.356 8.356 0 01-.949-.518l8.58-10.401 3.9-2.428a22.537 22.537 0 00-3.127.15l-6.24-5.15a1.07 1.07 0 00-.66-.242l-.004-.021zm.129 2.582L16 30.542l-8.976 10.88-4.436-3.661L11.56 26.88z"/></g><defs><clipPath id="clip0"><path fill="#fff" d="M0 0h60v80H0z"/></clipPath></defs></svg>