<svg width="50" height="50" fill="none" xmlns="http://www.w3.org/2000/svg"><path d="M49.144 8.943A9.104 9.104 0 0041.057.856a151.018 151.018 0 00-32.113 0A9.104 9.104 0 00.856 8.943a151.018 151.018 0 000 32.113 9.104 9.104 0 008.087 8.088 151.029 151.029 0 0032.114 0 9.104 9.104 0 008.087-8.088 151.025 151.025 0 000-32.113z" fill="url(#paint0_radial)"/><path d="M46.425 10.752a8.079 8.079 0 00-7.177-7.177 134.062 134.062 0 00-28.496 0 8.08 8.08 0 00-7.177 7.177 134.058 134.058 0 000 28.496 8.079 8.079 0 007.177 7.177 134.008 134.008 0 0028.496 0 8.078 8.078 0 007.177-7.177 134.008 134.008 0 000-28.496z" fill="url(#paint1_linear)"/><path d="M.75 40.02c.034.346.069.691.106 1.037a9.104 9.104 0 008.088 8.087 151.025 151.025 0 0032.113 0 9.104 9.104 0 008.087-8.087c.037-.346.073-.691.107-1.037H.75z" fill="url(#paint2_linear)"/><path d="M49.144 41.056c.613-5.746.897-11.5.85-17.255L38.567 12.37c-1.428-1.63-3.514-2.647-5.964-2.735a215.308 215.308 0 00-15.136.001c-4.186.144-7.113 2.958-7.864 7.093-.132.73-.212 1.47-.316 2.206V31.06c.058.393.142.784.169 1.179.168 2.515 1.201 4.67 2.857 6.127l11.63 11.63c5.707.04 11.415-.244 17.115-.852a9.104 9.104 0 008.087-8.088z" fill="url(#paint3_linear)"/><path d="M49.144 41.057a9.104 9.104 0 01-8.087 8.087 151.27 151.27 0 01-17.115.852L12.33 38.383c1.347 1.179 3.101 1.896 5.138 1.973 5.039.19 10.096.184 15.135.003 4.558-.165 7.856-3.538 7.998-8.096.152-4.84.152-9.691 0-14.53-.065-2.103-.803-3.954-2.027-5.354l11.422 11.422a151.43 151.43 0 01-.851 17.256z" fill="url(#paint4_linear)"/><path d="M30.9 19.586A8.009 8.009 0 1019.586 30.9l18.529 18.529c.98-.086 1.962-.18 2.941-.285a9.104 9.104 0 008.088-8.088c.105-.98.2-1.96.285-2.941l-18.53-18.53z" fill="url(#paint5_linear)"/><path d="M49.903 30.386L34.991 15.474a1.906 1.906 0 10-2.667 2.667l17.312 17.313c.118-1.689.207-3.379.267-5.068z" fill="url(#paint6_linear)"/><path d="M9.286 18.936c.104-.736.184-1.475.316-2.206.75-4.135 3.678-6.949 7.864-7.093 5.04-.173 10.096-.182 15.136 0 4.556.163 7.856 3.537 7.998 8.095.152 4.84.152 9.691 0 14.53-.142 4.559-3.44 7.932-7.998 8.096-5.04.182-10.096.187-15.135-.002-4.557-.172-7.707-3.553-8.012-8.118-.027-.395-.111-.786-.169-1.179V18.936zm15.718 18.721c2.307 0 4.615.07 6.918-.016 3.612-.134 5.833-2.29 5.918-5.897.104-4.496.104-8.997 0-13.493-.085-3.608-2.308-5.813-5.918-5.89a326.588 326.588 0 00-13.75 0c-3.582.075-5.81 2.236-5.907 5.804a252.061 252.061 0 000 13.665c.097 3.567 2.325 5.678 5.907 5.811 2.275.085 4.555.016 6.832.016z" fill="url(#paint7_linear)"/><path d="M9.286 18.936c.104-.736.184-1.475.316-2.206.75-4.135 3.678-6.949 7.864-7.093 5.04-.173 10.096-.182 15.136 0 4.556.163 7.856 3.537 7.998 8.095.152 4.84.152 9.691 0 14.53-.142 4.559-3.44 7.932-7.998 8.096-5.04.182-10.096.187-15.135-.002-4.557-.172-7.707-3.553-8.012-8.118-.027-.395-.111-.786-.169-1.179V18.936zm15.718 18.721c2.307 0 4.615.07 6.918-.016 3.612-.134 5.833-2.29 5.918-5.897.104-4.496.104-8.997 0-13.493-.085-3.608-2.308-5.813-5.918-5.89a326.588 326.588 0 00-13.75 0c-3.582.075-5.81 2.236-5.907 5.804a252.061 252.061 0 000 13.665c.097 3.567 2.325 5.678 5.907 5.811 2.275.085 4.555.016 6.832.016z" fill="#fff"/><path d="M25 16.992a8.009 8.009 0 100 16.017 8.009 8.009 0 000-16.017zm0 13.26a5.251 5.251 0 110-10.503 5.251 5.251 0 010 10.502zm10.381-13.626a1.905 1.905 0 11-3.81 0 1.905 1.905 0 013.81 0z" fill="#fff"/><defs><linearGradient id="paint1_linear" x1="19.177" y1="21.725" x2="-65.529" y2="-25.922" gradientUnits="userSpaceOnUse"><stop stop-color="#A1B5D8" stop-opacity="0"/><stop offset=".309" stop-color="#90A2BD" stop-opacity=".31"/><stop offset=".755" stop-color="#7C8B9C" stop-opacity=".757"/><stop offset="1" stop-color="#748290"/></linearGradient><linearGradient id="paint2_linear" x1="25" y1="44.137" x2="25" y2="51.931" gradientUnits="userSpaceOnUse"><stop stop-color="#FAE100" stop-opacity="0"/><stop offset=".307" stop-color="#FCA800" stop-opacity=".306"/><stop offset=".627" stop-color="#FE7300" stop-opacity=".627"/><stop offset=".869" stop-color="#FF5200" stop-opacity=".867"/><stop offset="1" stop-color="#FF4500"/></linearGradient><linearGradient id="paint3_linear" x1="22.155" y1="22.085" x2="9.781" y2="9.711" gradientUnits="userSpaceOnUse"><stop stop-color="#833AB4" stop-opacity="0"/><stop offset="1" stop-color="#833AB4"/></linearGradient><linearGradient id="paint4_linear" x1="34.267" y1="45.731" x2="28.091" y2="16.615" gradientUnits="userSpaceOnUse"><stop stop-color="#833AB4" stop-opacity="0"/><stop offset="1" stop-color="#833AB4"/></linearGradient><linearGradient id="paint5_linear" x1="36.618" y1="36.618" x2="11.811" y2="11.811" gradientUnits="userSpaceOnUse"><stop stop-color="#833AB4" stop-opacity="0"/><stop offset="1" stop-color="#833AB4"/></linearGradient><linearGradient id="paint6_linear" x1="38.458" y1="21.608" x2="30.255" y2="13.405" gradientUnits="userSpaceOnUse"><stop stop-color="#833AB4" stop-opacity="0"/><stop offset="1" stop-color="#833AB4"/></linearGradient><linearGradient id="paint7_linear" x1="34.928" y1="15.142" x2="14.701" y2="35.368" gradientUnits="userSpaceOnUse"><stop stop-color="#833AB4"/><stop offset=".092" stop-color="#9C3495"/><stop offset=".293" stop-color="#DC2546"/><stop offset=".392" stop-color="#FD1D1D"/><stop offset=".559" stop-color="#FC6831"/><stop offset=".689" stop-color="#FC9B40"/><stop offset=".752" stop-color="#FCAF45"/><stop offset=".781" stop-color="#FDB750"/><stop offset=".866" stop-color="#FECB6A"/><stop offset=".942" stop-color="#FFD87A"/><stop offset="1" stop-color="#FFDC80"/></linearGradient><radialGradient id="paint0_radial" cx="0" cy="0" r="1" gradientUnits="userSpaceOnUse" gradientTransform="translate(10.25 43.696) scale(55.1412)"><stop stop-color="#FAE100"/><stop offset=".054" stop-color="#FADC04"/><stop offset=".117" stop-color="#FBCE0E"/><stop offset=".183" stop-color="#FCB720"/><stop offset=".251" stop-color="#FE9838"/><stop offset=".305" stop-color="#FF7950"/><stop offset=".492" stop-color="#FF1C74"/><stop offset="1" stop-color="#6C1CD1"/></radialGradient></defs></svg>