<svg width="25" height="25" fill="none" xmlns="http://www.w3.org/2000/svg"><rect width="25" height="25" rx="12.5" transform="matrix(-1 0 0 1 25 0)" fill="#22ADE9"/><g clip-path="url(#clip0)" fill-rule="evenodd" clip-rule="evenodd"><path d="M15.402 16.479s-.221.565-.829.294l-3.642-2.859-1.324-.655-2.23-.769s-.342-.124-.375-.395c-.034-.272.386-.418.386-.418l8.864-3.559s.728-.327.728.215l-1.579 8.146z" fill="#FFFFFE"/><path d="M10.652 16.388s-.107-.01-.24-.44c-.132-.43-.806-2.689-.806-2.689l5.354-3.48s.309-.192.298 0c0 0 .055.034-.11.193-.166.158-4.205 3.875-4.205 3.875" fill="#E6E6E6"/><path d="M12.328 15.01l-1.441 1.345s-.113.087-.236.033l.276-2.498" fill="#CDCDCD"/></g><defs><clipPath id="clip0"><path fill="#fff" transform="translate(7 8)" d="M0 0h10v9H0z"/></clipPath></defs></svg>