<svg width="25" height="25" fill="none" xmlns="http://www.w3.org/2000/svg"><rect x="-.35" y=".35" width="24.3" height="24.3" rx="12.15" transform="matrix(-1 0 0 1 24.3 0)" stroke="#fff" stroke-width=".7"/><g clip-path="url(#clip0)"><path fill-rule="evenodd" clip-rule="evenodd" d="M12.625 8.036c.517.059 1.02.207 1.487.439.48.234.79.456 1.196.86.382.382.594.67.819 1.12.312.625.49 1.37.52 2.188.012.279.004.342-.06.421-.122.155-.39.13-.482-.044-.029-.058-.036-.107-.046-.33a5.765 5.765 0 00-.088-.83c-.19-1.04-.69-1.87-1.489-2.466-.665-.498-1.353-.74-2.255-.793-.305-.017-.358-.029-.426-.082-.13-.1-.136-.336-.012-.446.075-.069.129-.079.39-.07.136.004.336.02.446.033zm-3.667.172c.056.02.142.064.192.096.305.201 1.153 1.282 1.43 1.821.16.309.212.537.163.706-.052.182-.137.278-.517.583a3.01 3.01 0 00-.317.282.741.741 0 00-.105.361c.002.267.175.75.403 1.122.176.29.493.66.805.944.368.335.691.563 1.057.744.47.233.757.292.967.194a.769.769 0 00.127-.07c.016-.014.14-.164.274-.33.26-.326.32-.378.498-.439a.862.862 0 01.69.062c.278.154.548.32.81.501.326.229 1.026.797 1.12.91.167.205.196.466.084.755-.119.306-.58.877-.903 1.122-.292.22-.499.304-.772.317-.224.01-.317-.008-.604-.127-2.252-.924-4.05-2.303-5.478-4.198a11.877 11.877 0 01-1.701-3.08c-.227-.622-.237-.891-.051-1.21.08-.134.421-.466.67-.65.414-.307.605-.42.757-.453a.87.87 0 01.401.037zm3.777.985c.974.142 1.727.593 2.222 1.324.277.411.45.895.51 1.414.02.19.02.537-.002.594a.364.364 0 01-.146.157.359.359 0 01-.27-.009c-.123-.062-.16-.161-.16-.429 0-.414-.107-.85-.294-1.188a2.433 2.433 0 00-.894-.927c-.323-.192-.8-.334-1.234-.37-.157-.012-.244-.044-.303-.112a.29.29 0 01-.024-.361c.083-.13.212-.15.595-.093zm.342 1.205c.316.068.558.187.765.38.266.25.412.554.476.99.043.284.026.396-.075.489-.095.086-.27.09-.376.008-.077-.058-.1-.118-.118-.283a1.518 1.518 0 00-.126-.514c-.14-.302-.39-.458-.81-.51-.197-.023-.256-.046-.32-.12a.297.297 0 01.09-.448c.06-.03.086-.033.22-.025.084.005.208.02.273.033h.001z" fill="#fff"/></g><defs><clipPath id="clip0"><path fill="#fff" transform="translate(7 8)" d="M0 0h10v10H0z"/></clipPath></defs></svg>