<svg width="50" height="50" fill="none" xmlns="http://www.w3.org/2000/svg"><path d="M41.057 49.144a151.029 151.029 0 01-32.114 0 9.104 9.104 0 01-8.087-8.088 151.018 151.018 0 010-32.113A9.104 9.104 0 018.943.856a151.018 151.018 0 0132.113 0 9.104 9.104 0 018.088 8.087 151.025 151.025 0 010 32.113 9.104 9.104 0 01-8.087 8.088z" fill="url(#paint0_linear)"/><path d="M46.425 10.752a8.079 8.079 0 00-7.177-7.177 134.062 134.062 0 00-28.496 0 8.08 8.08 0 00-7.177 7.177 134.058 134.058 0 000 28.496 8.079 8.079 0 007.177 7.177 134.008 134.008 0 0028.496 0 8.078 8.078 0 007.177-7.177 134.008 134.008 0 000-28.496z" fill="url(#paint1_linear)"/><path d="M.75 40.02c.034.346.069.691.106 1.037a9.104 9.104 0 008.088 8.087 151.025 151.025 0 0032.113 0 9.104 9.104 0 008.087-8.087c.037-.346.073-.691.107-1.037H.75z" fill="url(#paint2_linear)"/><path d="M41.057 49.144a9.104 9.104 0 008.087-8.087c.5-4.677.78-9.359.842-14.042l-10.86-10.86c-.558-.692-1.063-.756-2.108-.96a16.972 16.972 0 00-2.575-.313c-2.755-.108-5.513-.212-8.27-.238-4.048-.039-8.098-.025-12.13.443-1.739.202-3.577 1.566-3.774 3.425-.101.955-.277 1.905-.331 2.862-.2 3.487-.241 6.972.246 10.446.164 1.163.343 1.695 1.127 2.343l15.822 15.822a151.48 151.48 0 0013.924-.841z" fill="url(#paint3_linear)"/><path d="M25.857 35.762c-4.036-.135-7.16-.212-10.28-.361-.953-.046-1.932-.175-2.834-.468-1.66-.539-2.607-1.753-2.853-3.506-.487-3.473-.446-6.958-.246-10.445.055-.957.23-1.907.331-2.863.197-1.858 2.035-3.223 3.774-3.424 4.033-.468 8.082-.482 12.13-.443 2.758.026 5.515.13 8.27.238.862.034 1.728.147 2.575.313 1.866.364 2.946 1.531 3.274 3.406.445 2.537.562 5.098.468 7.66-.07 1.94-.27 3.876-.471 5.808-.222 2.132-2.068 3.395-3.73 3.504-3.769.248-7.54.425-10.409.581z" fill="url(#paint4_linear)"/><path d="M22.05 29.717l7.766-4.768a135593.7 135593.7 0 00-7.765-4.772v9.54z" fill="#fff"/><defs><linearGradient id="paint0_linear" x1="11.374" y1="-1.25" x2="47.402" y2="68.158" gradientUnits="userSpaceOnUse"><stop stop-color="#FFFCF8"/><stop offset=".188" stop-color="#FAF8F6"/><stop offset=".404" stop-color="#ECEEF2"/><stop offset=".635" stop-color="#D5DCEA"/><stop offset=".875" stop-color="#B5C4DF"/><stop offset="1" stop-color="#A1B5D8"/></linearGradient><linearGradient id="paint1_linear" x1="19.177" y1="21.725" x2="-65.529" y2="-25.922" gradientUnits="userSpaceOnUse"><stop stop-color="#A1B5D8" stop-opacity="0"/><stop offset=".309" stop-color="#90A2BD" stop-opacity=".31"/><stop offset=".755" stop-color="#7C8B9C" stop-opacity=".757"/><stop offset="1" stop-color="#748290"/></linearGradient><linearGradient id="paint2_linear" x1="25" y1="44.137" x2="25" y2="51.931" gradientUnits="userSpaceOnUse"><stop stop-color="#A1B5D8" stop-opacity="0"/><stop offset=".309" stop-color="#90A2BD" stop-opacity=".31"/><stop offset=".755" stop-color="#7C8B9C" stop-opacity=".757"/><stop offset="1" stop-color="#748290"/></linearGradient><linearGradient id="paint3_linear" x1="41.358" y1="41.3" x2="7.056" y2="6.999" gradientUnits="userSpaceOnUse"><stop stop-color="#A1B5D8" stop-opacity="0"/><stop offset=".309" stop-color="#90A2BD" stop-opacity=".31"/><stop offset=".755" stop-color="#7C8B9C" stop-opacity=".757"/><stop offset="1" stop-color="#748290"/></linearGradient><linearGradient id="paint4_linear" x1="23.109" y1="19.521" x2="27.701" y2="32.891" gradientUnits="userSpaceOnUse"><stop stop-color="#E52D27"/><stop offset="1" stop-color="#B31217"/></linearGradient></defs></svg>