<svg width="60" height="80" fill="none" xmlns="http://www.w3.org/2000/svg"><g clip-path="url(#clip0)" fill="#C29F5B"><path d="M43.576 57.386c.418 1.088.837 2.17 1.255 3.258.168.433.35.865.503 1.298.014.035.028.084.035.105.02.048.028.195.014 0 .007.062 0 .118 0 .18 0-.285-.007 0-.007-.013-.007.028-.021.056-.028.084.014-.028.02-.056.035-.084 0 0-.084.14.014.014-.028.035-.224.188-.063.084-.105.07-.321.104-.007.028-.014 0-.021.006-.035.013a2.16 2.16 0 00-.189.077c-1.276.495-2.546.984-3.823 1.48-.376.146-.753.32-1.144.425.09-.028.133.042 0-.007-.035-.014-.202-.056.007.007-.056-.021-.118-.028-.174-.05.153.057 0 .015.007-.013-.014.09.209.028 0 0-.035-.007-.126-.167-.014 0-.098-.154-.09-.223-.028-.014-.042-.153-.119-.3-.174-.446-.475-1.235-.956-2.477-1.43-3.712-.203-.523-.698-.9-1.291-.733-5.177 1.486-10.863 1.486-16.033 0-.586-.167-1.088.21-1.29.733l-1.277 3.307c-.09.237-.188.481-.279.719-.014.041-.042.09-.056.139.035-.119.133-.181.021-.063-.132.14-.028.05 0 .014a.653.653 0 01-.098.098.568.568 0 00.035-.028c0 .02-.223.098.007.014-.055.02-.111.035-.174.049.049-.014.202-.007.007-.007-.21-.007-.035-.007 0 .007a3.097 3.097 0 01-.237-.077c-.168-.063-.335-.133-.503-.195-1.311-.503-2.616-1.012-3.927-1.514-.16-.063-.321-.133-.489-.189a.1.1 0 00-.042-.014c.258.05.133.063-.007-.027.105.07.014.062 0-.014-.02-.14-.132.02 0 0-.02 0-.097-.224-.014.006-.02-.062-.048-.306-.034-.076 0-.063-.007-.119 0-.182-.007.063-.05.175.014 0 .013-.035.02-.07.034-.104.021-.05.042-.098.056-.154.084-.223.175-.453.258-.676.482-1.242.956-2.484 1.438-3.726.174-.446-.12-.942-.482-1.179-1.625-1.06-3.084-2.302-4.388-3.837a12.84 12.84 0 01-.775-.984 20.76 20.76 0 01-.767-1.158c-.237-.39-.453-.795-.656-1.207-.251-.51-.342-.725-.516-1.193-.167-.44-.516-.767-1.012-.767H4.158c-.098 0-.195-.007-.293-.014.237.014-.063-.014-.098-.021a3.88 3.88 0 01-.272-.07l-.174-.063c.09.042.104.05.035.014-.154-.07-.293-.16-.44-.25-.237-.147.126.132-.077-.057-.062-.063-.132-.118-.195-.188a2.495 2.495 0 01-.181-.202c.146.174-.035-.056-.05-.084-.048-.077-.097-.154-.139-.237l-.083-.168c.048.112.048.105 0-.007-.05-.181-.112-.356-.133-.544.035.237 0-.167 0-.21v-3.885c0-.049.035-.447 0-.216.028-.189.084-.363.133-.545.076-.272-.098.154.035-.09.041-.084.083-.16.132-.244.049-.077.098-.154.154-.23-.133.188.048-.05.07-.07.062-.07.125-.133.195-.196a.993.993 0 01.14-.118c-.091.07-.091.07.006 0 .16-.098.307-.196.482-.266-.217.098.07-.014.097-.027.119-.035.244-.063.363-.091.28-.063-.188-.014.105-.007.07 0 .14-.007.209-.007H5.86c.496 0 .844-.335 1.012-.767.216-.58.46-1.11.802-1.745.328-.6.69-1.186 1.089-1.744a14.56 14.56 0 011.22-1.514c.482-.53.991-1.032 1.528-1.514.489-.432 1.13-.781 1.165-1.5.007-.174 0-.348 0-.516v-2.156c0-1.22-.027-2.448 0-3.67 0-.02.042-.278.007-.125-.041.16.035-.098.042-.104-.007.041-.104.188-.014.027.028-.042.056-.09.077-.132-.105.188-.056.056.007 0 .049-.042.09-.09.14-.133-.098.084-.105.07.006.014.07-.035.217-.07-.006-.007l.146-.042c.168-.062-.007-.007-.049 0 .063-.007.126-.007.196-.007.09-.007.216.056-.007-.007l.153.042c.175.042.014.007-.028-.014.07.042.147.084.216.133-.153-.112-.048-.035-.02-.007.062.063.132.118.202.181l.642.58 3.244 2.93c.265.237.663.397 1.018.272a.098.098 0 01.042-.014c-.44-.335-.886-.67-1.325-1.012.174 1.668.663 3.279 1.52 4.73.412.698.907 1.36 1.459 1.954.237.258.488.509.753.74.377.334.795.753 1.312.78 1.04.05 2.086 0 3.125 0h5.784c1.193 0 2.386.035 3.579 0 .649-.02 1.22-.627 1.667-1.06a11.285 11.285 0 001.703-2.079c1.025-1.59 1.59-3.412 1.75-5.288-.439.335-.885.67-1.325 1.011.328.112.649.238.97.363.432.168.51.203.893.377.614.272 1.214.572 1.8.893a24.05 24.05 0 012.525 1.577c.126.09.244.174.363.265.07.049.133.097.202.153a20.742 20.742 0 012.853 2.7c.19.216.37.433.545.656.125.16.035.049.007.014.056.077.112.146.167.223.091.126.182.251.272.384.35.495.67 1.005.956 1.535.14.25.272.509.398.774.063.126.118.251.174.37.028.07.063.14.091.21.09.209-.056-.147.035.083.21.537.405 1.074.558 1.632.16.586.28 1.18.377 1.78.007.041.028.202 0-.008l.02.182c.022.153.036.307.05.453.027.307.041.614.048.921.014.65-.02 1.298-.09 1.947-.007.048-.035.265-.007.07-.007.062-.021.132-.028.195l-.084.495c-.063.328-.133.649-.223.97-.16.614-.37 1.207-.6 1.8-.119.3.049-.105-.028.07a3.05 3.05 0 00-.098.23l-.188.411c-.147.3-.3.6-.468.893a15.795 15.795 0 01-2.588 3.454 19.703 19.703 0 01-3.572 2.937c-.474.307-.67.928-.377 1.43.272.468.956.684 1.43.377 4.898-3.21 8.686-8.24 9.007-14.246.28-5.344-2.393-10.353-6.37-13.786-2.483-2.142-5.385-3.725-8.476-4.814-.69-.244-1.27.384-1.325 1.012-.007.09-.014.188-.028.279-.007.049-.028.251-.007.105-.028.18-.056.362-.09.544-.07.335-.154.67-.252 1.004a7.685 7.685 0 01-.753 1.765c-.161.293-.342.58-.53.852l-.154.216-.063.084c.049-.056.049-.056 0 0-.098.125-.202.244-.3.362-.46.53-.977 1.012-1.535 1.445.244-.105.495-.203.74-.307H22.402c.244.104.495.202.74.306a10.926 10.926 0 01-1.473-1.367c-.104-.118-.21-.244-.307-.363-.063-.076.035.056-.063-.083a2.419 2.419 0 01-.153-.217 9.768 9.768 0 01-.544-.85 7.763 7.763 0 01-.74-1.661 12.399 12.399 0 01-.272-.998c-.042-.181-.07-.363-.104-.544-.007-.049-.028-.168-.007-.049-.014-.09-.021-.188-.035-.279-.063-.614-.628-1.27-1.326-1.012a.1.1 0 01-.042.014c.342.091.677.182 1.019.272-.705-.641-1.416-1.276-2.121-1.918-.753-.684-1.479-1.437-2.295-2.044-.851-.635-2.086-.65-2.958-.035-.74.516-1.137 1.318-1.145 2.218-.007 1.054 0 2.107 0 3.154v3.153c.105-.244.203-.495.307-.74-2.686 2.157-4.827 4.933-6.041 8.163.335-.258.67-.509 1.011-.767-1.228 0-2.448-.098-3.593.453C.781 38.054 0 39.631 0 41.25v3.223c0 .496.007.984.119 1.48.223.976.83 1.813 1.625 2.4 1.228.913 2.693.795 4.13.795-.335-.258-.67-.51-1.011-.768 1.52 4.047 4.479 7.29 8.065 9.635-.16-.39-.321-.788-.482-1.179a720.374 720.374 0 00-1.353 3.516c-.203.523-.46 1.047-.517 1.605-.07.725.238 1.479.789 1.946.286.244.607.384.949.516 1.332.517 2.665 1.026 3.99 1.542.517.203 1.033.454 1.598.454.795 0 1.556-.426 1.981-1.088.147-.23.237-.503.335-.754.502-1.305 1.012-2.616 1.514-3.92-.433.243-.858.487-1.29.732 4.374 1.255 9.034 1.458 13.52.781a28 28 0 003.628-.781c-.433-.245-.858-.489-1.29-.733.453 1.18.906 2.358 1.36 3.53.293.76.558 1.514 1.325 1.94.781.432 1.556.293 2.33-.007 1.368-.53 2.742-1.06 4.11-1.584.146-.056.293-.112.446-.174.677-.272 1.186-.719 1.458-1.416.286-.754.07-1.424-.195-2.114-.517-1.333-1.026-2.659-1.542-3.991-.202-.53-.705-.893-1.29-.733-.503.133-.929.754-.726 1.284z"/><path d="M12.697 32.054v-1.842c0-.544-.481-1.074-1.046-1.046-.565.028-1.047.46-1.047 1.046v1.842c0 .544.482 1.075 1.047 1.047.565-.028 1.046-.46 1.046-1.047zm40.395 12c.775.077 1.619-.07 2.351-.307a6.152 6.152 0 003.76-3.412c.622-1.423.817-2.972.796-4.513-.007-.545-.474-1.075-1.046-1.047-.559.028-1.054.46-1.047 1.047a13.337 13.337 0 01-.056 1.534l-.02.189c-.029.258.027-.147-.014.084a9.22 9.22 0 01-.391 1.57c-.028.076-.189.418-.056.146-.049.104-.098.209-.147.307a5.272 5.272 0 01-.341.579c-.042.063-.091.174-.16.223.188-.147.09-.112.02-.028-.028.028-.049.056-.077.09a5.752 5.752 0 01-.404.42c-.056.055-.119.104-.182.16-.209.181.182-.126-.035.028-.146.097-.286.195-.44.279a5.322 5.322 0 01-.501.251c-.112.056.272-.098.104-.042l-.223.084c-.251.09-.51.153-.774.21-.133.027-.53.034-.084.02-.112 0-.223.028-.335.035a3.89 3.89 0 01-.698 0c-.544-.056-1.067.523-1.046 1.046.028.614.46.984 1.046 1.047zM37.98 25.357c-.007.9-.063 1.43-.279 2.274a10.1 10.1 0 01-.342 1.081 6.767 6.767 0 01-.398.872 9.01 9.01 0 01-.537.915 7.15 7.15 0 01-.335.474c-.041.056-.041.056.007 0l-.062.084a10.8 10.8 0 01-1.8 1.765c.244-.105.495-.203.74-.307H22.435c.244.104.496.202.74.307-1.2-.928-2.01-1.87-2.693-3.16-.084-.161-.16-.315-.237-.482 0 0-.14-.321-.07-.147a10.685 10.685 0 01-.453-1.332 10.144 10.144 0 01-.217-1.019c-.035-.209.028.245-.014-.104-.007-.077-.014-.16-.028-.238a10.477 10.477 0 01.035-2.253l.063-.377c.118-.614.286-1.22.51-1.8 0 .007.11-.272.048-.132-.056.14.063-.14.056-.133.063-.14.132-.279.195-.418.154-.3.321-.593.495-.88.077-.118.147-.23.23-.341.043-.063.091-.126.133-.189-.007.007.175-.237.084-.111-.09.118.09-.119.084-.112a1.23 1.23 0 01.118-.14c.119-.139.238-.279.363-.411.21-.223.426-.433.649-.642.112-.104.23-.202.349-.3.049-.042.098-.077.14-.111.09-.077.097-.077.006-.007a11.052 11.052 0 011.723-1.047c.14-.07.28-.133.42-.188-.182.076-.029.014.006 0a11.147 11.147 0 011.193-.39 9.844 9.844 0 011.165-.231c-.042.007-.202.02.007 0 .195-.021.384-.035.58-.05.327-.02.648-.02.976-.006.16.007.32.014.481.028.063.007.126.014.196.02.062.008.293.036.104.008a9.984 9.984 0 012.351.62c.189.07.05.015.007 0 .084.035.168.077.252.112.279.126.55.272.816.419.265.153.523.314.774.488.077.05.147.105.223.16.028.022.16.12.007 0a11.325 11.325 0 011.151 1.04c.126.133.245.265.363.405.05.056.098.119.147.174.028.035.223.293.09.112.42.565.789 1.165 1.089 1.8.028.056.049.111.077.167.028.056.111.258.041.091.07.174.133.349.196.523.118.342.216.684.3 1.033.042.167.077.342.105.509.013.09.027.188.048.28.035.23-.014-.154.014.104.028.411.056.802.056 1.193 0 .544.481 1.074 1.047 1.046.565-.028 1.046-.46 1.046-1.046a11.532 11.532 0 00-2.714-7.367 11.247 11.247 0 00-6.509-3.796c-2.672-.488-5.449-.056-7.807 1.298-2.295 1.318-4.032 3.411-4.981 5.867-1.026 2.651-.956 5.714.14 8.33a11.466 11.466 0 002.539 3.775c.453.446 1.06 1.102 1.71 1.137.097.007.195 0 .292 0h9.23c.99 0 1.995.042 2.986 0 .628-.028 1.2-.642 1.64-1.06a11.93 11.93 0 001.437-1.69 11.035 11.035 0 001.765-3.99 12.24 12.24 0 00.279-2.518c.007-.544-.481-1.075-1.047-1.047-.578.035-1.046.475-1.053 1.06z"/><path d="M38.169 32.515H19.227c-.544 0-1.074.481-1.046 1.046.028.565.46 1.047 1.046 1.047H38.17c.544 0 1.074-.482 1.046-1.047-.02-.572-.453-1.046-1.046-1.046zm-25.695 7.646c.544 0 1.074-.481 1.046-1.047-.027-.565-.46-1.046-1.046-1.046-.544 0-1.074.481-1.046 1.047.02.565.46 1.046 1.046 1.046z"/></g><defs><clipPath id="clip0"><path fill="#fff" d="M0 0h60v80H0z"/></clipPath></defs></svg>