<svg width="42" height="50" fill="none" xmlns="http://www.w3.org/2000/svg"><path d="M34.336 27.14a3.52 3.52 0 01-1.083 2.566l.048.121c.191.496.282 1.018.26 1.553a3.826 3.826 0 01-1.53 2.913l-.278.213v.083c0 1.79-1.465 3.247-3.27 3.247h-6.279v2.557c0 .87.34 1.687.953 2.291a3.209 3.209 0 002.296.957 3.255 3.255 0 003.13-2.378h-3.13a.87.87 0 110-1.74h4.117c.483 0 .87.387.87.87a4.993 4.993 0 01-4.988 4.987 4.942 4.942 0 01-3.526-1.465 4.924 4.924 0 01-1.46-3.522v-2.557h-7.084a.87.87 0 110-1.739h15.101a1.52 1.52 0 001.483-1.152h-.435a.87.87 0 110-1.74h1.06l.396-.3a2.108 2.108 0 00.692-2.447l-.057-.148H30.34a.87.87 0 110-1.74h1.574l.008-.003a1.78 1.78 0 00.674-1.405c0-.452-.16-.86-.452-1.17l-.282-.3H30.34a.87.87 0 110-1.739h1.791a2.29 2.29 0 00.465-1.365 1.802 1.802 0 00-1.8-1.796h-11.17a.87.87 0 110-1.74h.844v-7.156l-.009-.148c0-.047-.009-.1-.022-.152-.195-.9-1.043-1.613-2.06-1.73l-.396-.048a.452.452 0 00-.361.113.452.452 0 00-.152.339l.004 1.56a11.08 11.08 0 01-.857 4.288 11.153 11.153 0 01-2.448 3.648l-3.282 3.252V38.91a.87.87 0 01-.87.87H7.495a.87.87 0 110-1.74h1.652V21.21H7.495a.872.872 0 01-.87-.87c0-.478.392-.87.87-.87h2.522a.87.87 0 01.87.87v.23l2.056-2.039a9.46 9.46 0 002.07-3.078 9.406 9.406 0 00.722-3.618l-.005-1.543c0-.648.27-1.244.735-1.661a2.196 2.196 0 011.718-.54l.395.048c.7.079 1.344.322 1.887.687V6.861c0-.082.018-.156.04-.23l.012-.052a.922.922 0 01.1-.21h.005L24.735.375a.874.874 0 011.435 0l4.117 5.996c.1.143.153.313.153.491v9.744a.87.87 0 11-1.74 0V7.131l-3.247-4.727-2.462 3.588h2.462c.482 0 .87.387.87.87v9.695a.87.87 0 11-1.74 0V7.731h-2.378l.004 11.322h8.587c.574 0 1.144.143 1.648.413a3.532 3.532 0 011.892 3.122 4.04 4.04 0 01-.779 2.374c.505.613.779 1.378.779 2.178z" fill="#C29F5B"/><path d="M5.813 23.682a.87.87 0 00-.87.87v10.147a.87.87 0 001.74 0V24.55a.87.87 0 00-.87-.87z" fill="#C29F5B"/><path d="M40.649 25.298a20.542 20.542 0 00-1.197-3.86 20.645 20.645 0 00-4.4-6.535 20.757 20.757 0 00-1.195-1.106.87.87 0 10-1.13 1.322 18.958 18.958 0 013.39 3.798 18.746 18.746 0 013.21 10.523c0 1.279-.13 2.555-.383 3.795a18.716 18.716 0 01-2.828 6.73 18.963 18.963 0 01-5.077 5.084 18.664 18.664 0 01-6.718 2.83c-2.477.509-5.1.509-7.577.001a18.695 18.695 0 01-6.718-2.83 18.914 18.914 0 01-5.078-5.085 18.759 18.759 0 01-3.21-10.523 18.759 18.759 0 015.505-13.31 18.805 18.805 0 015.974-4.034.87.87 0 00-.677-1.602 20.536 20.536 0 00-6.526 4.406 20.576 20.576 0 00-4.4 6.535A20.465 20.465 0 000 29.44a20.51 20.51 0 006.014 14.538 20.533 20.533 0 006.526 4.406A20.428 20.428 0 0020.533 50a20.433 20.433 0 0011.48-3.512 20.661 20.661 0 005.546-5.553 20.557 20.557 0 001.893-3.492 20.542 20.542 0 001.614-8.003c0-1.394-.14-2.788-.417-4.142z" fill="#C29F5B"/></svg>