<svg width="60" height="80" fill="none" xmlns="http://www.w3.org/2000/svg"><path d="M15.662 51.098c.31.163.617.245.912.245.428 0 .81-.173 1.075-.488.213-.252.441-.706.316-1.43l-.349-2.03 1.48-1.44c.516-.499.707-1.106.526-1.664-.181-.56-.693-.939-1.404-1.041l-2.05-.297-.916-1.85c-.317-.642-.836-1.01-1.423-1.01-.588 0-1.107.368-1.424 1.01l-.916 1.85-2.05.297c-.71.102-1.222.482-1.404 1.041-.18.56.01 1.166.525 1.665l1.481 1.439-.349 2.03c-.125.723.103 1.177.316 1.43.447.532 1.228.641 1.986.243l1.835-.96 1.833.96zm-4.023-1.93l.417-2.43-1.767-1.717 2.443-.354 1.097-2.214 1.096 2.214 2.444.354L15.6 46.74l.418 2.43-2.19-1.148-2.19 1.147zM8.836 38.265l-.294-1.797 1.241-1.266c.472-.481.64-1.062.462-1.595-.176-.526-.65-.885-1.3-.983l-1.68-.256-.76-1.61c-.416-.882-1.08-.977-1.348-.977-.267 0-.932.095-1.347.977l-.76 1.61-1.68.255c-.65.1-1.125.458-1.3.985-.178.533-.01 1.114.461 1.594l1.242 1.266-.295 1.796c-.114.693.106 1.127.31 1.368.43.506 1.173.608 1.876.221l1.493-.82 1.493.82c.29.16.579.24.86.24.402 0 .762-.163 1.014-.46.205-.241.425-.674.312-1.368zm-2.298-2.432l.327 1.999-1.708-.94-1.707.938.327-1.997-1.433-1.461 1.976-.3.837-1.777.838 1.776 1.975.302-1.432 1.46zM50.56 43.25l-2.05-.297-.915-1.85c-.317-.642-.836-1.01-1.424-1.01-.587 0-1.106.368-1.423 1.01l-.917 1.85-2.05.297c-.71.102-1.222.482-1.403 1.04-.18.56.01 1.166.525 1.666l1.48 1.438-.348 2.031c-.125.724.103 1.178.316 1.43.447.53 1.228.641 1.987.243l1.833-.96 1.835.96c.31.163.616.245.911.245.429 0 .81-.173 1.075-.488.213-.253.44-.707.316-1.43l-.35-2.03 1.482-1.439c.515-.5.706-1.106.525-1.665-.182-.559-.694-.939-1.404-1.041zm-2.616 3.488l.417 2.43-2.19-1.147-2.19 1.148.418-2.43-1.768-1.718 2.444-.354 1.096-2.214 1.097 2.214 2.443.354-1.767 1.717zm11.987-13.13c-.176-.527-.65-.886-1.3-.984l-1.68-.256-.76-1.61c-.415-.882-1.081-.977-1.348-.977-.267 0-.932.095-1.348.977l-.76 1.61-1.68.255c-.65.099-1.123.458-1.3.984-.177.533-.01 1.114.462 1.595l1.242 1.266-.295 1.798c-.113.693.107 1.126.312 1.367.43.505 1.172.606 1.874.22l1.493-.82 1.493.82c.29.16.579.24.86.24.403 0 .763-.164 1.015-.461.205-.241.425-.675.311-1.367l-.295-1.797 1.241-1.266c.472-.48.64-1.061.463-1.594zm-3.708 2.225l.328 1.999-1.708-.94-1.708.938.328-1.997-1.434-1.461 1.976-.3.838-1.777.837 1.776 1.976.302-1.433 1.46zM30 34.937a7.968 7.968 0 007.968-7.97A7.967 7.967 0 0030 19a7.968 7.968 0 100 15.937zm0-14.062a6.1 6.1 0 016.094 6.093A6.101 6.101 0 0130 33.062a6.101 6.101 0 01-6.094-6.094A6.1 6.1 0 0130 20.875zm5.238 33.88l2.464-2.514c.64-.652.877-1.415.652-2.093-.223-.668-.853-1.127-1.73-1.26l-3.371-.512-1.516-3.215c-.561-1.19-1.402-1.318-1.737-1.318-.336 0-1.177.129-1.736 1.319l-1.516 3.213-3.373.513c-.876.133-1.507.593-1.73 1.261-.225.678.013 1.441.652 2.092l2.465 2.514-.582 3.559c-.158.957.124 1.53.388 1.841.54.637 1.484.745 2.425.227L30 58.729l3.006 1.653c.405.223.801.336 1.178.336.497 0 .94-.2 1.248-.563.264-.311.546-.883.389-1.84l-.583-3.56zM33.97 58.62c.01.061.015.115.018.16a1.315 1.315 0 01-.08-.04L30 56.59l-3.91 2.15a1.647 1.647 0 01-.079.04c.003-.046.009-.1.019-.16l.736-4.498-3.13-3.194c-.058-.058-.1-.11-.13-.153a1.21 1.21 0 01.151-.032l4.36-.663 1.943-4.118a1.46 1.46 0 01.04-.081c.014.024.028.051.042.081l1.94 4.118 4.36.663c.062.009.112.02.152.032a1.23 1.23 0 01-.131.154l-3.13 3.193.738 4.498zM17.233 40.878c.504-.907 1.09-1.71 1.768-2.405 1.483-1.524 3.446-2.567 5.858-3.127a9.891 9.891 0 01-1.83-1.437c-3.223 1.047-5.43 2.923-6.93 5.233.33.31.614.686.834 1.129l.3.607zM15.574 53.61c-.307 0-.55-.241-.556-.45l-.004-.3c-.074-.033-.148-.062-.222-.1l-.964-.506-.696.365c.003.198.007.395.012.59.033 1.259 1.143 2.277 2.43 2.277h7.17l.015-.096-1.744-1.78h-5.441zm19.462-18.2c2.352.587 4.284 1.64 5.77 3.155.71.723 1.328 1.565 1.859 2.519l.402-.814c.188-.378.425-.705.694-.987-1.515-2.309-3.716-4.198-6.885-5.284a9.883 9.883 0 01-1.84 1.412zm10.172 17.35c-.07.036-.144.059-.215.091-.002.108 0 .212-.002.321-.004.199-.249.439-.546.439h-5.46l-1.743 1.778.015.097h7.188c1.284 0 2.396-1.018 2.42-2.277.004-.194.006-.39.008-.588l-.701-.367-.964.505z" fill="#C29F5B"/></svg>