<svg width="60" height="80" fill="none" xmlns="http://www.w3.org/2000/svg"><path d="M30.463 68a7.486 7.486 0 01-3.834-1.057c-1.02-.61-2.296-1.338-3.707-2.15-6.23-3.606-14.846-8.579-17.005-11.712-1.885-2.769-2.232-12.16-2.514-25.102-.09-4.198-.173-8.142-.373-10.866a2.85 2.85 0 011.093-2.677 2.85 2.85 0 012.896 0c4.663 2.268 8.097 3.524 9.673 3.524 1.575 0 5.874-1.666 11.458-4.453a4.835 4.835 0 014.399.045c5.237 2.76 9.19 4.409 10.556 4.409 1.603 0 5.31-1.276 10.438-3.644a2.65 2.65 0 012.687.2 3.917 3.917 0 011.448 3.507c-.2 2.733-.282 6.604-.374 10.666-.273 12.532-.619 21.613-2.513 24.391-2.378 3.48-12.597 9.509-20.73 14a7.423 7.423 0 01-3.598.919zM5.471 15.856a.52.52 0 00-.328.092 1.166 1.166 0 00-.292 1.038c.2 2.732.283 6.73.374 10.93.2 9.108.473 21.595 2.204 24.136 1.913 2.814 10.638 7.833 16.394 11.148 1.421.82 2.733 1.557 3.726 2.168a5.693 5.693 0 005.628.11C44.29 59.392 51.612 54.501 53.28 52.06c1.666-2.441 2.003-14.117 2.204-23.417.09-4.08.182-7.933.373-10.747a2.123 2.123 0 00-.674-1.822.811.811 0 00-.91 0c-5.493 2.441-9.254 3.707-11.167 3.707-2.177 0-7.405-2.514-11.403-4.618a3.015 3.015 0 00-2.733 0c-4.244 2.095-9.818 4.618-12.277 4.618-1.904 0-5.465-1.248-10.474-3.716a1.758 1.758 0 00-.747-.21z" fill="#C29F5B"/><path d="M30.463 62.59a1.96 1.96 0 01-1.02-.337c-1.047-.62-2.35-1.367-3.789-2.195-6.485-3.735-13.343-7.824-15.056-9.855a1.111 1.111 0 01-.154-.264c-1.039-2.833-1.376-12.852-1.576-22.096v-.374c0-1.676-.073-3.315-.118-4.855a.91.91 0 011.247-.865c3.744 1.485 5.547 1.676 6.695 1.676 1.147 0 3.698 0 13.188-4.681a.975.975 0 01.83 0c8.98 4.681 11.284 4.681 12.395 4.681 1.111 0 3.188-.218 7.66-1.958a.91.91 0 011.239.883c-.064 1.904-.11 3.971-.155 6.103v.11c-.191 8.934-.492 18.67-1.558 21.376a.91.91 0 01-.154.245c-1.367 1.65-6.995 5.684-18.7 12.105a1.975 1.975 0 01-.974.3zm-18.38-13.444c1.977 2.14 10.984 7.341 14.464 9.327a437.37 437.37 0 013.816 2.222.183.183 0 00.191 0c11.932-6.54 16.914-10.283 18.08-11.567.992-2.887 1.257-14.81 1.384-20.593v-.119c0-1.64.073-3.242.11-4.772-3.871 1.412-5.775 1.603-7.023 1.603-1.248 0-3.789 0-12.824-4.664-9.545 4.664-12.268 4.664-13.59 4.664a17.361 17.361 0 01-6.092-1.32c0 1.128.054 2.303.082 3.506v.373c.136 5.984.41 18.316 1.402 21.34z" fill="#C29F5B"/><path d="M22.157 49.839h-.128a.91.91 0 01-.628-.4l-5.465-8.198a.91.91 0 111.512-1.002l4.9 7.35L44.344 29.1a.913.913 0 011.39 1.127.91.91 0 01-.224.277L22.74 49.629a.91.91 0 01-.583.21z" fill="#C29F5B"/></svg>