<svg width="58" height="58" fill="none" xmlns="http://www.w3.org/2000/svg"><g filter="url(#filter0_d)"><circle cx="29" cy="25" r="25" fill="#C29F5B"/></g><path d="M28.999 33.702a8.653 8.653 0 01-6.159-2.551 8.653 8.653 0 01-2.551-6.159c0-2.327.907-4.514 2.551-6.158A8.654 8.654 0 0129 16.282c2.327 0 4.514.908 6.158 2.552a8.653 8.653 0 012.552 6.158 8.653 8.653 0 01-2.552 6.159A8.644 8.644 0 0129 33.702zm0-16.273c-4.173 0-7.567 3.394-7.567 7.567s3.394 7.567 7.567 7.567 7.567-3.394 7.567-7.567-3.394-7.567-7.567-7.567z" fill="#fff"/><path d="M27.704 28.413l-3.041-3.041.805-.805 2.236 2.236 4.826-4.822.805.805-5.631 5.627z" fill="#fff"/><path d="M29 38.889a3.355 3.355 0 01-2.378-.987l-1.45-1.45a2.206 2.206 0 00-1.568-.65h-2.05a3.364 3.364 0 01-3.36-3.36v-2.05c0-.585-.236-1.159-.65-1.569l-1.45-1.45a3.362 3.362 0 010-4.75l1.45-1.45c.414-.414.65-.987.65-1.568v-2.05a3.364 3.364 0 013.36-3.36h2.05c.592 0 1.15-.232 1.568-.65l1.45-1.45A3.337 3.337 0 0129 11.11c.9 0 1.739.35 2.377.983l1.45 1.45c.418.422.976.65 1.568.65h2.05a3.364 3.364 0 013.36 3.36v2.05c0 .593.232 1.151.65 1.569l1.45 1.45a3.362 3.362 0 010 4.75l-1.45 1.45c-.418.418-.65.976-.65 1.569v2.05a3.364 3.364 0 01-3.36 3.36h-2.05c-.592 0-1.15.232-1.568.65l-1.45 1.45a3.21 3.21 0 01-.498.41c-.09.064-.193.121-.296.178A3.354 3.354 0 0129 38.89zm-7.45-23.56a2.224 2.224 0 00-2.222 2.221v2.05c0 .897-.349 1.74-.983 2.374l-1.45 1.45a2.223 2.223 0 000 3.14l1.45 1.45a3.34 3.34 0 01.983 2.378v2.05c0 1.222.995 2.221 2.222 2.221h2.05c.896 0 1.739.35 2.377.983l1.45 1.45a2.253 2.253 0 00.524.392 2.22 2.22 0 002.092 0c.069-.034.133-.076.194-.114.118-.08.231-.17.33-.274l1.45-1.45a3.337 3.337 0 012.377-.983h2.05a2.224 2.224 0 002.222-2.221v-2.05c0-.897.35-1.744.983-2.378l1.45-1.45a2.223 2.223 0 000-3.14l-1.45-1.45a3.337 3.337 0 01-.983-2.377v-2.05a2.224 2.224 0 00-2.221-2.222h-2.05a3.346 3.346 0 01-2.378-.983l-1.45-1.45a2.223 2.223 0 00-3.14 0l-1.45 1.45a3.337 3.337 0 01-2.377.983h-2.05z" fill="#fff"/><defs><filter id="filter0_d" x="0" y="0" width="58" height="58" filterUnits="userSpaceOnUse" color-interpolation-filters="sRGB"><feFlood flood-opacity="0" result="BackgroundImageFix"/><feColorMatrix in="SourceAlpha" values="0 0 0 0 0 0 0 0 0 0 0 0 0 0 0 0 0 0 127 0"/><feOffset dy="4"/><feGaussianBlur stdDeviation="2"/><feColorMatrix values="0 0 0 0 0.760784 0 0 0 0 0.623529 0 0 0 0 0.356863 0 0 0 0.25 0"/><feBlend in2="BackgroundImageFix" result="effect1_dropShadow"/><feBlend in="SourceGraphic" in2="effect1_dropShadow" result="shape"/></filter></defs></svg>