<svg width="60" height="80" fill="none" xmlns="http://www.w3.org/2000/svg"><path d="M20.844 37.95c-.444.088-.8.444-.8.888v3.111c0 .445.356.8.8.89l2.134.355c.088.178.177.355.177.533l-1.244 1.69c-.267.355-.267.888.089 1.155l2.222 2.222c.267.355.8.355 1.156.089l1.689-1.245c.177.09.355.178.533.178l.355 2.133c.09.445.445.8.89.8h3.11c.445 0 .8-.355.89-.8l.355-2.133c.178-.089.355-.178.533-.178l1.689 1.245c.356.266.889.266 1.156-.09l2.222-2.221c.355-.356.355-.8.089-1.156l-1.245-1.689c.09-.177.178-.355.178-.533l2.133-.356c.445-.089.8-.444.8-.889v-3.11c0-.445-.355-.8-.8-.89l-2.133-.355c-.089-.178-.178-.356-.178-.533l1.245-1.69c.266-.355.266-.888-.09-1.155l-2.221-2.222c-.267-.356-.8-.356-1.156-.089l-1.867 1.333c-.177-.088-.355-.177-.533-.177l-.356-2.134c-.088-.444-.444-.8-.888-.8h-3.111c-.445 0-.8.356-.89.8l-.355 2.134c-.178.089-.355.177-.533.177l-1.69-1.244c-.355-.267-.888-.267-1.155.089L22 34.216c-.356.356-.356.8-.089 1.156l1.244 1.689c-.088.177-.177.355-.177.533l-2.134.355zm2.934 1.333c.355-.09.622-.267.71-.622.09-.445.267-.8.534-1.245.178-.266.178-.71-.089-.978l-1.155-1.51 1.155-1.156 1.511 1.155c.267.178.623.267.978.09.356-.179.8-.356 1.244-.534.356-.089.623-.356.623-.711l.266-1.867h1.6l.267 1.867c.089.355.267.622.622.71.445.09.89.267 1.245.534.266.178.71.178.977-.089l1.512-1.155 1.155 1.155-1.155 1.511c-.178.267-.267.623-.09.978.178.356.356.8.534 1.245.089.355.355.622.711.622l1.867.267v1.6l-1.867.266c-.355.089-.622.267-.711.622-.089.445-.267.8-.533 1.245-.178.267-.178.71.089.978l1.155 1.51-1.155 1.156-1.512-1.155c-.266-.178-.622-.267-.977-.09-.356.179-.8.356-1.245.534-.355.089-.622.356-.622.711l-.267 1.867h-1.6l-.266-1.867c-.09-.355-.267-.622-.623-.71-.444-.09-.8-.267-1.244-.534-.267-.178-.711-.178-.978.089l-1.51 1.155-1.156-1.155 1.155-1.511c.178-.267.267-.623.089-.978-.178-.356-.355-.8-.533-1.245-.09-.355-.356-.622-.711-.622l-1.867-.266v-1.6l1.867-.267z" fill="#C29F5B"/><path d="M30.355 45.239c2.667 0 4.89-2.222 4.89-4.89 0-2.666-2.223-4.888-4.89-4.888-2.666 0-4.977 2.222-4.977 4.889 0 2.666 2.222 4.889 4.977 4.889zm0-8c1.69 0 3.111 1.422 3.111 3.11 0 1.69-1.422 3.112-3.11 3.112-1.69 0-3.112-1.422-3.112-3.111a3.092 3.092 0 013.111-3.111zM54 55.993l-13.511 4.712c-.89.355-1.867.355-2.756.177l-4.266-.977c1.333-.8 2.488-2.045 3.022-3.645.089-.267.089-.533-.09-.711-.088-.178-.355-.355-.532-.444L19.51 51.37c-.178-.089-.444 0-.622.09l-9.956 5.421v-.533a.89.89 0 00-.889-.889l-5.155.089c-.445 0-.889.444-.889.889l.178 11.289c0 .444.444.889.889.889l5.155-.09a.89.89 0 00.89-.888v-1.422h11.021l17.778 2.4c.267 0 .622.088.889.088.978 0 1.955-.177 2.844-.622l14.578-6.755c1.6-.711 2.133-2.667 1.244-4.178-.8-1.156-2.222-1.6-3.466-1.156zM3.956 66.927l-.178-9.6 3.378-.09c0 2.4.088 7.112.177 9.512l-3.377.178zm51.466-7.2l-14.578 6.755c-.889.445-1.866.534-2.755.445-18.845-2.49-17.867-2.4-17.956-2.4H9.023l-.09-5.6 10.4-5.778 15.022 3.378c-1.066 1.778-3.2 2.755-5.244 2.31l-7.2-1.6c-.444-.088-.978.179-1.067.712-.088.533.178.978.711 1.067 1.6.355-5.866-1.334 15.912 3.644a7.557 7.557 0 003.733-.178l13.51-4.71c.534-.178 1.068 0 1.334.444.267.444 0 1.244-.622 1.51zm2.311-46.488a.807.807 0 00-.622-.267l-5.155-.089c-.534 0-.89.356-.89.89v1.421l-11.021-.266-17.69-2.845c-1.244-.178-2.577-.089-3.821.445l-14.667 6.4a2.942 2.942 0 00-1.333 4.177c.71 1.156 2.133 1.69 3.378 1.245l13.6-4.356c.888-.266 1.866-.355 2.755-.089l4.267 1.067c-1.422.8-2.49 2.044-3.022 3.556-.09.266-.09.533.088.71.09.178.356.356.534.445L40.4 29.861h.178c.178 0 .267 0 .444-.089l9.956-5.155v.533c0 .533.355.889.889.889l5.155.089a.89.89 0 00.89-.89L58 13.95c0-.267-.089-.534-.267-.711zM40.49 28.083l-14.933-3.822c2.844-4.622 8.533-.8 12.533-.356.445.09.978-.177 1.067-.622.089-.444-.178-.978-.622-1.067-1.6-.444 5.866 1.512-15.822-4.088-1.245-.356-2.578-.267-3.734.088l-13.6 4.356c-.533.178-1.066 0-1.333-.533a1.107 1.107 0 01.533-1.6l14.756-6.311c.889-.356 1.777-.445 2.755-.356l17.778 2.844c.089 0-.533 0 11.2.356l-.089 5.6-10.489 5.511zm15.645-3.822h-3.378c0-2.222.089-7.022.089-9.511h3.377l-.089 9.51zM39.333 51.64a.86.86 0 001.245 0c5.333-5.156 6.489-13.245 2.755-19.645-.266-.445-.8-.534-1.244-.356-.444.267-.533.8-.356 1.245a14.31 14.31 0 01-2.488 17.51.952.952 0 00.088 1.245zm-19.2-22.046c-5.244 5.244-6.222 13.333-2.4 19.733.267.445.8.533 1.245.267.444-.267.533-.8.266-1.245-3.377-5.689-2.577-12.889 2.134-17.51a.86.86 0 000-1.245.86.86 0 00-1.245 0z" fill="#C29F5B"/></svg>