<svg width="60" height="80" fill="none" xmlns="http://www.w3.org/2000/svg"><path d="M11.25 45.344a.938.938 0 100-1.875.938.938 0 000 1.875zm36.094 0a.938.938 0 100-1.875.938.938 0 000 1.875zm7.031 19.219a.938.938 0 01-.938.937h-2.812a.938.938 0 01-.938-.938V62.22h-1.874v2.343a2.815 2.815 0 002.812 2.813h2.813a2.815 2.815 0 002.812-2.813V62.22h-1.875v2.343z" fill="#C29F5B"/><path d="M5.156 43a.938.938 0 01.938-.938h47.812a.938.938 0 01.938.938v2.344h1.875V43a2.816 2.816 0 00-2.813-2.813h-5.625v-1.406a.938.938 0 10-1.875 0v1.407H15V26.124h9.844v.469a4.224 4.224 0 003.281 4.11v.979a.937.937 0 101.875 0v-.98a4.224 4.224 0 003.281-4.11v-.468h9.375v7.5A2.347 2.347 0 0045 35.969h3.75a2.347 2.347 0 002.344-2.344V15.812A2.816 2.816 0 0048.28 13h-2.81a2.816 2.816 0 00-2.813 2.813v2.343H15v-2.812A2.346 2.346 0 0012.656 13H8.437a2.346 2.346 0 00-2.343 2.344v24.843A2.815 2.815 0 003.28 43v2.344h1.875V43zm26.25-16.406a2.344 2.344 0 11-4.687 0v-.469h4.687v.469zM7.97 15.344a.47.47 0 01.468-.469h4.22a.47.47 0 01.468.469v3.75a.937.937 0 00.938.937h29.53a.937.937 0 00.938-.937v-3.282a.939.939 0 01.938-.937h2.812a.938.938 0 01.938.938v17.812a.47.47 0 01-.469.469H45a.47.47 0 01-.469-.469v-8.438a.937.937 0 00-.937-.937H14.062a.938.938 0 00-.937.938v15H7.969V15.343zm49.218 31.875H2.812A2.815 2.815 0 000 50.03v7.5a2.816 2.816 0 002.813 2.813h54.374A2.816 2.816 0 0060 57.53v-7.5a2.816 2.816 0 00-2.813-2.812zm.937 10.312a.938.938 0 01-.938.938H2.813a.939.939 0 01-.938-.938v-7.5a.939.939 0 01.938-.937h54.374a.938.938 0 01.938.937v7.5z" fill="#C29F5B"/><path d="M6.563 52.844h-.47a.937.937 0 100 1.875h.47a.938.938 0 000-1.875zm4.783 0h-.957a.938.938 0 100 1.875h.957a.937.937 0 100-1.875zm23.915 0h-.956a.937.937 0 100 1.875h.956a.938.938 0 000-1.875zm-4.783 0h-.956a.937.937 0 100 1.875h.956a.938.938 0 000-1.875zm14.35 0h-.957a.938.938 0 100 1.875h.957a.938.938 0 000-1.875zm-4.784 0h-.956a.937.937 0 100 1.875h.956a.937.937 0 100-1.875zm9.566 0h-.956a.937.937 0 100 1.875h.957a.938.938 0 000-1.875zm-33.481 0h-.957a.937.937 0 100 1.875h.957a.938.938 0 000-1.875zm4.783 0h-.957a.937.937 0 100 1.875h.957a.938.938 0 000-1.875zm4.783 0h-.957a.937.937 0 100 1.875h.957a.938.938 0 000-1.875zm28.211 0h-.468a.937.937 0 100 1.875h.468a.938.938 0 000-1.875zM10.313 64.563a.938.938 0 01-.938.937H6.562a.938.938 0 01-.937-.938V62.22H3.75v2.343a2.815 2.815 0 002.813 2.813h2.812a2.815 2.815 0 002.813-2.813V62.22h-1.876v2.343z" fill="#C29F5B"/></svg>