<svg width="25" height="25" fill="none" xmlns="http://www.w3.org/2000/svg"><rect x="-.35" y=".35" width="24.3" height="24.3" rx="12.15" transform="matrix(-1 0 0 1 24.3 0)" stroke="#fff" stroke-width=".7"/><g clip-path="url(#clip0)" fill-rule="evenodd" clip-rule="evenodd"><path d="M15.401 16.479s-.22.565-.828.294l-3.642-2.859-1.325-.655-2.23-.769s-.341-.124-.374-.395c-.034-.272.386-.418.386-.418l8.863-3.559s.729-.327.729.215L15.4 16.48z" fill="#FFFFFE"/><path d="M10.651 16.388s-.106-.01-.239-.44c-.132-.43-.806-2.689-.806-2.689l5.354-3.48s.309-.192.298 0c0 0 .055.034-.11.193-.166.158-4.206 3.875-4.206 3.875" fill="#E6E6E6"/><path d="M12.328 15.01l-1.441 1.345s-.113.087-.236.033l.276-2.498" fill="#CDCDCD"/></g><defs><clipPath id="clip0"><path fill="#fff" transform="translate(7 8)" d="M0 0h10v9H0z"/></clipPath></defs></svg>