<svg width="18" height="12" fill="none" xmlns="http://www.w3.org/2000/svg"><path d="M1.778 0C1.39 0 1.035.124.743.333L.75.34l7.778 7.306c.172.161.55.161.722 0L17.028.34l.007-.007A1.768 1.768 0 0016 0H1.778zM.174 1.014c-.11.231-.174.49-.174.764v8.444c0 .335.097.643.257.91l5.5-4.868-5.583-5.25zm17.43 0l-5.583 5.25 5.5 4.868a1.76 1.76 0 00.257-.91V1.778c0-.274-.064-.533-.174-.764zM6.41 6.875L.889 11.757c.262.152.563.243.889.243H16c.326 0 .627-.091.889-.243l-5.521-4.882-1.507 1.417c-.544.51-1.4.51-1.944 0L6.41 6.875z" fill="#fff"/></svg>