<svg width="30" height="30" fill="none" xmlns="http://www.w3.org/2000/svg"><path d="M4.155 10.505a.904.904 0 111.644.752c-2.292 4.997-.1 10.905 4.897 13.197s10.905.1 13.197-4.897.1-10.905-4.897-13.197a9.954 9.954 0 00-9.502.654l3.524 2.326a.904.904 0 11-.996 1.51L7.25 7.698a.904.904 0 01-.375-.989l1.404-5.24a.904.904 0 111.746.469l-.855 3.19c5.644-3.073 12.71-.988 15.782 4.655 3.072 5.643.988 12.709-4.655 15.781-5.644 3.072-12.71.988-15.782-4.655a11.635 11.635 0 01-.36-10.405z" fill="#fff"/></svg>