<svg width="25" height="25" fill="none" xmlns="http://www.w3.org/2000/svg"><rect width="25" height="25" rx="12.5" transform="matrix(-1 0 0 1 25 0)" fill="#A226DC"/><g clip-path="url(#clip0)"><path fill-rule="evenodd" clip-rule="evenodd" d="M12.625 8.036c.518.059 1.02.207 1.487.439.481.234.79.456 1.196.86.383.382.594.67.819 1.12.313.625.49 1.37.52 2.188.013.279.004.342-.06.421-.122.155-.39.13-.481-.044-.03-.058-.037-.107-.047-.33a5.779 5.779 0 00-.088-.83c-.19-1.04-.69-1.87-1.488-2.466-.666-.498-1.354-.74-2.256-.793-.305-.017-.357-.029-.426-.082-.129-.1-.135-.336-.011-.446.075-.069.128-.079.389-.07.137.004.337.02.446.033zm-3.667.172c.056.02.143.064.193.096.304.201 1.152 1.282 1.43 1.821.159.309.212.537.162.706-.051.182-.137.278-.516.583a2.92 2.92 0 00-.318.282.741.741 0 00-.104.361c.001.267.174.75.402 1.122.177.29.493.66.806.944.367.335.69.563 1.056.744.47.233.758.292.968.194a.767.767 0 00.126-.07c.017-.014.14-.164.275-.33.26-.326.319-.378.497-.439a.862.862 0 01.69.062c.278.154.549.32.81.501.327.229 1.027.797 1.121.91.167.205.196.466.084.755-.12.306-.581.877-.904 1.122-.292.22-.499.304-.771.317-.224.01-.318-.008-.605-.127-2.252-.924-4.05-2.303-5.477-4.198a11.877 11.877 0 01-1.702-3.08c-.226-.622-.237-.891-.051-1.21.08-.134.422-.466.67-.65.414-.307.605-.42.757-.453a.87.87 0 01.401.037zm3.777.985c.974.142 1.728.593 2.222 1.324.277.411.45.895.51 1.414.02.19.02.537-.002.594a.364.364 0 01-.146.157.359.359 0 01-.269-.009c-.124-.062-.16-.161-.16-.429 0-.414-.108-.85-.294-1.188a2.433 2.433 0 00-.895-.927c-.323-.192-.799-.334-1.234-.37-.157-.012-.243-.044-.303-.112a.29.29 0 01-.024-.361c.084-.13.212-.15.595-.093zm.342 1.205c.316.068.558.187.765.38.266.25.412.554.476.99.044.284.026.396-.075.489a.31.31 0 01-.375.008c-.078-.058-.101-.118-.12-.283a1.516 1.516 0 00-.124-.514c-.141-.302-.39-.458-.81-.51-.197-.023-.257-.046-.321-.12a.297.297 0 01.09-.448c.06-.03.086-.033.221-.025.084.005.207.02.273.033z" fill="#fff"/></g><defs><clipPath id="clip0"><path fill="#fff" transform="translate(7 8)" d="M0 0h10v10H0z"/></clipPath></defs></svg>